<?xml version='1.0' encoding='UTF-8' standalone='no'?>
<!-- Created with Fritzing (http://www.fritzing.org/) -->
<svg xmlns:svg='http://www.w3.org/2000/svg' xmlns='http://www.w3.org/2000/svg' version='1.2' baseProfile='tiny' x='0in' y='0in' width='3.37828in' height='2.33751in' viewBox='0 0 243.236 168.301' >
<g partID='59020'><g transform='translate(0,168.301)' ><g transform='matrix(0,-1,1,0,0,0)'  ><g id="schematic">
<rect class="interior rect" fill="#FFFFFF" x="14.85" y="14.85" stroke="#000000" stroke-width="0.9" stroke-linecap="round" width="78.3" height="135.9"/>
<line class="pin" y1="28.8" y2="28.8" fill="none" x1="93.2499" x2="107.65" stroke="#787878" stroke-width="0.699999" stroke-linecap="round" id="connector61pin"/>
<text class="text" fill="#8c8c8c" font-family="'Droid Sans'" x="91.8499" stroke="none" stroke-width="0" y="29.4999" text-anchor="end" font-size="3.49999">D0/RX</text>
<g class="terminal" fill="none" x="107.65" y="28.4499" stroke="none" stroke-width="0" width="0.699999" id="connector61terminal" height="0.699999"/>
<line class="pin" y1="36" y2="36" fill="none" x1="93.2499" x2="107.65" stroke="#787878" stroke-width="0.699999" stroke-linecap="round" id="connector62pin"/>
<text class="text" fill="#8c8c8c" font-family="'Droid Sans'" x="91.8499" stroke="none" stroke-width="0" y="36.6999" text-anchor="end" font-size="3.49999">D1/TX</text>
<g class="terminal" fill="none" x="107.65" y="35.6499" stroke="none" stroke-width="0" width="0.699999" id="connector62terminal" height="0.699999"/>
<line class="pin" y1="43.2" y2="43.2" fill="none" x1="93.2499" x2="107.65" stroke="#787878" stroke-width="0.699999" stroke-linecap="round" id="connector63pin"/>
<text class="text" fill="#8c8c8c" font-family="'Droid Sans'" x="91.8499" stroke="none" stroke-width="0" y="43.8999" text-anchor="end" font-size="3.49999">D2</text>
<g class="terminal" fill="none" x="107.65" y="42.8499" stroke="none" stroke-width="0" width="0.699999" id="connector63terminal" height="0.699999"/>
<line class="pin" y1="50.4" y2="50.4" fill="none" x1="93.2499" x2="107.65" stroke="#787878" stroke-width="0.699999" stroke-linecap="round" id="connector64pin"/>
<text class="text" fill="#8c8c8c" font-family="'Droid Sans'" x="91.8499" stroke="none" stroke-width="0" y="51.0999" text-anchor="end" font-size="3.49999">D3 PWM</text>
<g class="terminal" fill="none" x="107.65" y="50.0499" stroke="none" stroke-width="0" width="0.699999" id="connector64terminal" height="0.699999"/>
<line class="pin" y1="57.6" y2="57.6" fill="none" x1="93.2499" x2="107.65" stroke="#787878" stroke-width="0.699999" stroke-linecap="round" id="connector65pin"/>
<text class="text" fill="#8c8c8c" font-family="'Droid Sans'" x="91.8499" stroke="none" stroke-width="0" y="58.2999" text-anchor="end" font-size="3.49999">D4</text>
<g class="terminal" fill="none" x="107.65" y="57.2499" stroke="none" stroke-width="0" width="0.699999" id="connector65terminal" height="0.699999"/>
<line class="pin" y1="64.8" y2="64.8" fill="none" x1="93.2499" x2="107.65" stroke="#787878" stroke-width="0.699999" stroke-linecap="round" id="connector66pin"/>
<text class="text" fill="#8c8c8c" font-family="'Droid Sans'" x="91.8499" stroke="none" stroke-width="0" y="65.4999" text-anchor="end" font-size="3.49999">D5 PWM</text>
<g class="terminal" fill="none" x="107.65" y="64.4499" stroke="none" stroke-width="0" width="0.699999" id="connector66terminal" height="0.699999"/>
<line class="pin" y1="72" y2="72" fill="none" x1="93.2499" x2="107.65" stroke="#787878" stroke-width="0.699999" stroke-linecap="round" id="connector67pin"/>
<text class="text" fill="#8c8c8c" font-family="'Droid Sans'" x="91.8499" stroke="none" stroke-width="0" y="72.6999" text-anchor="end" font-size="3.49999">D6 PWM</text>
<g class="terminal" fill="none" x="107.65" y="71.6499" stroke="none" stroke-width="0" width="0.699999" id="connector67terminal" height="0.699999"/>
<line class="pin" y1="79.2" y2="79.2" fill="none" x1="93.2499" x2="107.65" stroke="#787878" stroke-width="0.699999" stroke-linecap="round" id="connector68pin"/>
<text class="text" fill="#8c8c8c" font-family="'Droid Sans'" x="91.8499" stroke="none" stroke-width="0" y="79.8999" text-anchor="end" font-size="3.49999">D7</text>
<g class="terminal" fill="none" x="107.65" y="78.8499" stroke="none" stroke-width="0" width="0.699999" id="connector68terminal" height="0.699999"/>
<line class="pin" y1="86.4" y2="86.4" fill="none" x1="93.2499" x2="107.65" stroke="#787878" stroke-width="0.699999" stroke-linecap="round" id="connector51pin"/>
<text class="text" fill="#8c8c8c" font-family="'Droid Sans'" x="91.8499" stroke="none" stroke-width="0" y="87.0999" text-anchor="end" font-size="3.49999">D8</text>
<g class="terminal" fill="none" x="107.65" y="86.0499" stroke="none" stroke-width="0" width="0.699999" id="connector51terminal" height="0.699999"/>
<line class="pin" y1="93.6" y2="93.6" fill="none" x1="93.2499" x2="107.65" stroke="#787878" stroke-width="0.699999" stroke-linecap="round" id="connector52pin"/>
<text class="text" fill="#8c8c8c" font-family="'Droid Sans'" x="91.8499" stroke="none" stroke-width="0" y="94.2999" text-anchor="end" font-size="3.49999">D9 PWM</text>
<g class="terminal" fill="none" x="107.65" y="93.2499" stroke="none" stroke-width="0" width="0.699999" id="connector52terminal" height="0.699999"/>
<line class="pin" y1="100.8" y2="100.8" fill="none" x1="93.2499" x2="107.65" stroke="#787878" stroke-width="0.699999" stroke-linecap="round" id="connector53pin"/>
<text class="text" fill="#8c8c8c" font-family="'Droid Sans'" x="91.8499" stroke="none" stroke-width="0" y="101.5" text-anchor="end" font-size="3.49999">D10 PWM/SS</text>
<g class="terminal" fill="none" x="107.65" y="100.45" stroke="none" stroke-width="0" width="0.699999" id="connector53terminal" height="0.699999"/>
<line class="pin" y1="108" y2="108" fill="none" x1="93.2499" x2="107.65" stroke="#787878" stroke-width="0.699999" stroke-linecap="round" id="connector54pin"/>
<text class="text" fill="#8c8c8c" font-family="'Droid Sans'" x="91.8499" stroke="none" stroke-width="0" y="108.7" text-anchor="end" font-size="3.49999">D11 PWM/MOSI</text>
<g class="terminal" fill="none" x="107.65" y="107.65" stroke="none" stroke-width="0" width="0.699999" id="connector54terminal" height="0.699999"/>
<line class="pin" y1="115.2" y2="115.2" fill="none" x1="93.2499" x2="107.65" stroke="#787878" stroke-width="0.699999" stroke-linecap="round" id="connector55pin"/>
<text class="text" fill="#8c8c8c" font-family="'Droid Sans'" x="91.8499" stroke="none" stroke-width="0" y="115.9" text-anchor="end" font-size="3.49999">D12/MISO</text>
<g class="terminal" fill="none" x="107.65" y="114.85" stroke="none" stroke-width="0" width="0.699999" id="connector55terminal" height="0.699999"/>
<line class="pin" y1="122.4" y2="122.4" fill="none" x1="93.2499" x2="107.65" stroke="none" stroke-width="0" stroke-linecap="round" id="connector41pin"/>
<rect class="terminal" fill="none" x="107.65" y="122.05" stroke="none" stroke-width="0" width="0.699999" id="connector41terminal" height="0.699999"/>
<line class="pin" y1="122.4" y2="122.4" fill="none" x1="93.2499" x2="107.65" stroke="#787878" stroke-width="0.699999" stroke-linecap="round" id="connector56pin"/>
<text class="text" fill="#8c8c8c" font-family="'Droid Sans'" x="91.8499" stroke="none" stroke-width="0" y="123.1" text-anchor="end" font-size="3.49999">D13/SCK</text>
<g class="terminal" fill="none" x="107.65" y="122.05" stroke="none" stroke-width="0" width="0.699999" id="connector56terminal" height="0.699999"/>
<line class="pin" y1="28.8" y2="28.8" fill="none" x1="0.349999" x2="14.75" stroke="none" stroke-width="0" stroke-linecap="round" id="connector43pin"/>
<rect class="terminal" fill="none" x="-0.349999" y="28.4499" stroke="none" stroke-width="0" width="0.699999" id="connector43terminal" height="0.699999"/>
<line class="pin" y1="28.8" y2="28.8" fill="none" x1="0.349999" x2="14.75" stroke="#787878" stroke-width="0.699999" stroke-linecap="round" id="connector85pin"/>
<text class="text" fill="#8c8c8c" font-family="'Droid Sans'" x="16.15" stroke="none" stroke-width="0" y="29.4999" text-anchor="start" font-size="3.49999">RESET</text>
<g class="terminal" fill="none" x="-0.349999" y="28.4499" stroke="none" stroke-width="0" width="0.699999" id="connector85terminal" height="0.699999"/>
<line class="pin" y1="36" y2="36" fill="none" x1="0.349999" x2="14.75" stroke="#787878" stroke-width="0.699999" stroke-linecap="round" id="connector49pin"/>
<text class="text" fill="#8c8c8c" font-family="'Droid Sans'" x="16.15" stroke="none" stroke-width="0" y="36.6999" text-anchor="start" font-size="3.49999">RESET2</text>
<rect class="terminal" fill="none" x="-0.349999" y="35.6499" stroke="none" stroke-width="0" width="0.699999" id="connector49terminal" height="0.699999"/>
<line class="pin" y1="43.2" y2="43.2" fill="none" x1="0.349999" x2="14.75" stroke="#787878" stroke-width="0.699999" stroke-linecap="round" id="connector58pin"/>
<text class="text" fill="#8c8c8c" font-family="'Droid Sans'" x="16.15" stroke="none" stroke-width="0" y="43.8999" text-anchor="start" font-size="3.49999">AREF</text>
<g class="terminal" fill="none" x="-0.349999" y="42.8499" stroke="none" stroke-width="0" width="0.699999" id="connector58terminal" height="0.699999"/>
<line class="pin" y1="50.4" y2="50.4" fill="none" x1="0.349999" x2="14.75" stroke="#787878" stroke-width="0.699999" stroke-linecap="round" id="connector84pin"/>
<text class="text" fill="#8c8c8c" font-family="'Droid Sans'" x="16.15" stroke="none" stroke-width="0" y="51.0999" text-anchor="start" font-size="3.49999">ioref</text>
<g class="terminal" fill="none" x="-0.349999" y="50.0499" stroke="none" stroke-width="0" width="0.699999" id="connector84terminal" height="0.699999"/>
<line class="pin" y1="64.8" y2="64.8" fill="none" x1="0.349999" x2="14.75" stroke="#787878" stroke-width="0.699999" stroke-linecap="round" id="connector0pin"/>
<text class="text" fill="#8c8c8c" font-family="'Droid Sans'" x="16.15" stroke="none" stroke-width="0" y="65.4999" text-anchor="start" font-size="3.49999">A0</text>
<g class="terminal" fill="none" x="-0.349999" y="64.4499" stroke="none" stroke-width="0" width="0.699999" id="connector0terminal" height="0.699999"/>
<line class="pin" y1="72" y2="72" fill="none" x1="0.349999" x2="14.75" stroke="#787878" stroke-width="0.699999" stroke-linecap="round" id="connector1pin"/>
<text class="text" fill="#8c8c8c" font-family="'Droid Sans'" x="16.15" stroke="none" stroke-width="0" y="72.6999" text-anchor="start" font-size="3.49999">A1</text>
<g class="terminal" fill="none" x="-0.349999" y="71.6499" stroke="none" stroke-width="0" width="0.699999" id="connector1terminal" height="0.699999"/>
<line class="pin" y1="79.2" y2="79.2" fill="none" x1="0.349999" x2="14.75" stroke="#787878" stroke-width="0.699999" stroke-linecap="round" id="connector2pin"/>
<text class="text" fill="#8c8c8c" font-family="'Droid Sans'" x="16.15" stroke="none" stroke-width="0" y="79.8999" text-anchor="start" font-size="3.49999">A2</text>
<g class="terminal" fill="none" x="-0.349999" y="78.8499" stroke="none" stroke-width="0" width="0.699999" id="connector2terminal" height="0.699999"/>
<line class="pin" y1="86.4" y2="86.4" fill="none" x1="0.349999" x2="14.75" stroke="#787878" stroke-width="0.699999" stroke-linecap="round" id="connector3pin"/>
<text class="text" fill="#8c8c8c" font-family="'Droid Sans'" x="16.15" stroke="none" stroke-width="0" y="87.0999" text-anchor="start" font-size="3.49999">A3</text>
<g class="terminal" fill="none" x="-0.349999" y="86.0499" stroke="none" stroke-width="0" width="0.699999" id="connector3terminal" height="0.699999"/>
<line class="pin" y1="93.6" y2="93.6" fill="none" x1="0.349999" x2="14.75" stroke="none" stroke-width="0" stroke-linecap="round" id="connector48pin"/>
<rect class="terminal" fill="none" x="-0.349999" y="93.2499" stroke="none" stroke-width="0" width="0.699999" id="connector48terminal" height="0.699999"/>
<line class="pin" y1="93.6" y2="93.6" fill="none" x1="0.349999" x2="14.75" stroke="none" stroke-width="0" stroke-linecap="round" id="connector45pin"/>
<rect class="terminal" fill="none" x="-0.349999" y="93.2499" stroke="none" stroke-width="0" width="0.699999" id="connector45terminal" height="0.699999"/>
<line class="pin" y1="93.6" y2="93.6" fill="none" x1="0.349999" x2="14.75" stroke="none" stroke-width="0" stroke-linecap="round" id="connector4pin"/>
<g class="terminal" fill="none" x="-0.349999" y="93.2499" stroke="none" stroke-width="0" width="0.699999" id="connector4terminal" height="0.699999"/>
<line class="pin" y1="93.6" y2="93.6" fill="none" x1="0.349999" x2="14.75" stroke="none" stroke-width="0" stroke-linecap="round" id="connector39pin"/>
<rect class="terminal" fill="none" x="-0.349999" y="93.2499" stroke="none" stroke-width="0" width="0.699999" id="connector39terminal" height="0.699999"/>
<line class="pin" y1="93.6" y2="93.6" fill="none" x1="0.349999" x2="14.75" stroke="none" stroke-width="0" stroke-linecap="round" id="connector47pin"/>
<rect class="terminal" fill="none" x="-0.349999" y="93.2499" stroke="none" stroke-width="0" width="0.699999" id="connector47terminal" height="0.699999"/>
<line class="pin" y1="93.6" y2="93.6" fill="none" x1="0.349999" x2="14.75" stroke="none" stroke-width="0" stroke-linecap="round" id="connector42pin"/>
<rect class="terminal" fill="none" x="-0.349999" y="93.2499" stroke="none" stroke-width="0" width="0.699999" id="connector42terminal" height="0.699999"/>
<line class="pin" y1="93.6" y2="93.6" fill="none" x1="0.349999" x2="14.75" stroke="#787878" stroke-width="0.699999" stroke-linecap="round" id="connector59pin"/>
<text class="text" fill="#8c8c8c" font-family="'Droid Sans'" x="16.15" stroke="none" stroke-width="0" y="94.2999" text-anchor="start" font-size="3.49999">A4/SDA</text>
<g class="terminal" fill="none" x="-0.349999" y="93.2499" stroke="none" stroke-width="0" width="0.699999" id="connector59terminal" height="0.699999"/>
<line class="pin" y1="100.8" y2="100.8" fill="none" x1="0.349999" x2="14.75" stroke="none" stroke-width="0" stroke-linecap="round" id="connector5pin"/>
<g class="terminal" fill="none" x="-0.349999" y="100.45" stroke="none" stroke-width="0" width="0.699999" id="connector5terminal" height="0.699999"/>
<line class="pin" y1="100.8" y2="100.8" fill="none" x1="0.349999" x2="14.75" stroke="#787878" stroke-width="0.699999" stroke-linecap="round" id="connector60pin"/>
<text class="text" fill="#8c8c8c" font-family="'Droid Sans'" x="16.15" stroke="none" stroke-width="0" y="101.5" text-anchor="start" font-size="3.49999">A5/SCL</text>
<g class="terminal" fill="none" x="-0.349999" y="100.45" stroke="none" stroke-width="0" width="0.699999" id="connector60terminal" height="0.699999"/>
<line class="pin" y1="136.8" y2="136.8" fill="none" x1="0.349999" x2="14.75" stroke="#787878" stroke-width="0.699999" stroke-linecap="round" id="connector91pin"/>
<text class="text" fill="#8c8c8c" font-family="'Droid Sans'" x="16.15" stroke="none" stroke-width="0" y="137.5" text-anchor="start" font-size="3.49999">N/C</text>
<g class="terminal" fill="none" x="-0.349999" y="136.45" stroke="none" stroke-width="0" width="0.699999" id="connector91terminal" height="0.699999"/>
<line class="pin" y1="150.85" y2="165.25" fill="none" x1="57.6" x2="57.6" stroke="none" stroke-width="0" stroke-linecap="round" id="connector88pin"/>
<g class="terminal" fill="none" x="57.2499" y="165.25" stroke="none" stroke-width="0" width="0.699999" id="connector88terminal" height="0.699999"/>
<line class="pin" y1="150.85" y2="165.25" fill="none" x1="57.6" x2="57.6" stroke="none" stroke-width="0" stroke-linecap="round" id="connector57pin"/>
<g class="terminal" fill="none" x="57.2499" y="165.25" stroke="none" stroke-width="0" width="0.699999" id="connector57terminal" height="0.699999"/>
<line class="pin" y1="150.85" y2="165.25" fill="none" x1="57.6" x2="57.6" stroke="none" stroke-width="0" stroke-linecap="round" id="connector44pin"/>
<rect class="terminal" fill="none" x="57.2499" y="165.25" stroke="none" stroke-width="0" width="0.699999" id="connector44terminal" height="0.699999"/>
<line class="pin" y1="150.85" y2="165.25" fill="none" x1="57.6" x2="57.6" stroke="none" stroke-width="0" stroke-linecap="round" id="connector50pin"/>
<rect class="terminal" fill="none" x="57.2499" y="165.25" stroke="none" stroke-width="0" width="0.699999" id="connector50terminal" height="0.699999"/>
<line class="pin" y1="150.85" y2="165.25" fill="none" x1="57.6" x2="57.6" stroke="#787878" stroke-width="0.699999" stroke-linecap="round" id="connector89pin"/>
<g transform="matrix(1, 0, 0, 1, 58.2999, 149.45)">
<g>
<g transform="rotate(270)">
<g>
<text class="text" fill="#8c8c8c" font-family="'Droid Sans'" x="0" stroke="none" stroke-width="0" y="0" text-anchor="start" font-size="3.49999">GND</text>
</g>
</g>
</g>
</g>
<g class="terminal" fill="none" x="57.2499" y="165.25" stroke="none" stroke-width="0" width="0.699999" id="connector89terminal" height="0.699999"/>
<line class="pin" y1="0.349999" y2="14.75" fill="none" x1="36" x2="36" stroke="#787878" stroke-width="0.699999" stroke-linecap="round" id="connector86pin"/>
<g transform="matrix(1, 0, 0, 1, 36.6999, 16.15)">
<g>
<g transform="rotate(270)">
<g>
<text class="text" fill="#8c8c8c" font-family="'Droid Sans'" x="0" stroke="none" stroke-width="0" y="0" text-anchor="end" font-size="3.49999">3V3</text>
</g>
</g>
</g>
</g>
<g class="terminal" fill="none" x="35.6499" y="-0.349999" stroke="none" stroke-width="0" width="0.699999" id="connector86terminal" height="0.699999"/>
<line class="pin" y1="0.349999" y2="14.75" fill="none" x1="50.4" x2="50.4" stroke="none" stroke-width="0" stroke-linecap="round" id="connector40pin"/>
<rect class="terminal" fill="none" x="50.0499" y="-0.349999" stroke="none" stroke-width="0" width="0.699999" id="connector40terminal" height="0.699999"/>
<line class="pin" y1="0.349999" y2="14.75" fill="none" x1="50.4" x2="50.4" stroke="none" stroke-width="0" stroke-linecap="round" id="connector46pin"/>
<rect class="terminal" fill="none" x="50.0499" y="-0.349999" stroke="none" stroke-width="0" width="0.699999" id="connector46terminal" height="0.699999"/>
<line class="pin" y1="0.349999" y2="14.75" fill="none" x1="50.4" x2="50.4" stroke="#787878" stroke-width="0.699999" stroke-linecap="round" id="connector87pin"/>
<g transform="matrix(1, 0, 0, 1, 51.0999, 16.15)">
<g>
<g transform="rotate(270)">
<g>
<text class="text" fill="#8c8c8c" font-family="'Droid Sans'" x="0" stroke="none" stroke-width="0" y="0" text-anchor="end" font-size="3.49999">5V</text>
</g>
</g>
</g>
</g>
<g class="terminal" fill="none" x="50.0499" y="-0.349999" stroke="none" stroke-width="0" width="0.699999" id="connector87terminal" height="0.699999"/>
<line class="pin" y1="0.349999" y2="14.75" fill="none" x1="64.8" x2="64.8" stroke="#787878" stroke-width="0.699999" stroke-linecap="round" id="connector90pin"/>
<g transform="matrix(1, 0, 0, 1, 65.4999, 16.15)">
<g>
<g transform="rotate(270)">
<g>
<text class="text" fill="#8c8c8c" font-family="'Droid Sans'" x="0" stroke="none" stroke-width="0" y="0" text-anchor="end" font-size="3.49999">VIN</text>
</g>
</g>
</g>
</g>
<g class="terminal" fill="none" x="64.4499" y="-0.349999" stroke="none" stroke-width="0" width="0.699999" id="connector90terminal" height="0.699999"/>
<text class="text" fill="#000000" font-family="'Droid Sans'" x="54.4501" stroke="none" stroke-width="0" y="76.4498" text-anchor="middle" id="label" font-size="4.25001">Arduino</text>
<text class="text" fill="#000000" font-family="'Droid Sans'" x="54.4501" stroke="none" stroke-width="0" y="80.9833" text-anchor="middle" id="label" font-size="4.25001">Uno</text>
<text class="text" fill="#000000" font-family="'Droid Sans'" x="54.4501" stroke="none" stroke-width="0" y="85.5167" text-anchor="middle" id="label" font-size="4.25001">(Rev3)</text>
</g>
</g></g></g><g partID='62750'><g transform='translate(165.385,0)' ><g transform='matrix(0,1,1,0,0,0)'  ><g id="schematic">
<g>
<path d="M13.5,14.966L9.9,14.966c-0.193,0,-0.35,-0.156,-0.35,-0.35s0.156,-0.35,0.35,-0.35L13.5,14.266c0.193,0,0.35,0.156,0.35,0.35S13.694,14.966,13.5,14.966z"/>
</g>
<g>
<path d="M9.9,14.966L6.3,14.966c-0.193,0,-0.35,-0.156,-0.35,-0.35s0.157,-0.35,0.35,-0.35l3.6,0c0.193,0,0.35,0.156,0.35,0.35S10.093,14.966,9.9,14.966z"/>
</g>
<g>
<polygon fill="#FFFFFF" points="9.9,14.616,6.3,7.416,9.9,7.416,13.5,7.416"/>
<path d="M9.9,15.398L5.734,7.066l8.333,0L9.9,15.398zM6.866,7.766L9.9,13.834l3.034,-6.068L6.866,7.766z"/>
</g>
<g>
<path d="M9.9,14.841c-0.124,0,-0.225,-0.101,-0.225,-0.225l0,-7.2c0,-0.124,0.101,-0.225,0.225,-0.225s0.225,0.101,0.225,0.225l0,7.2C10.124,14.74,10.024,14.841,9.9,14.841z"/>
</g>
<g>
<path d="M1.8,12.141c-0.058,0,-0.115,-0.021,-0.159,-0.065c-0.088,-0.088,-0.088,-0.23,0,-0.318l2.34,-2.341c0.088,-0.088,0.23,-0.088,0.318,0s0.088,0.23,0,0.318l-2.34,2.341C1.915,12.12,1.858,12.141,1.8,12.141z"/>
</g>
<g>
<path d="M2.16,15.381c-0.058,0,-0.115,-0.021,-0.159,-0.065c-0.088,-0.088,-0.088,-0.23,0,-0.318l2.34,-2.34c0.088,-0.088,0.23,-0.088,0.318,0s0.088,0.23,0,0.318l-2.34,2.34C2.276,15.359,2.218,15.381,2.16,15.381z"/>
</g>
<g id="connector0pin">
<path fill="#787878" d="M9.9,22.166c-0.193,0,-0.35,-0.156,-0.35,-0.35l0,-7.2c0,-0.193,0.156,-0.35,0.35,-0.35s0.35,0.156,0.35,0.35l0,7.2C10.249,22.01,10.093,22.166,9.9,22.166z"/>
</g>
<g id="connector0terminal">
<rect fill="none" x="9.9" y="21.816" width="0.001" height="0.001"/>
</g>
<g transform="matrix(1, 0, 0, 1, 3.429, 6.4262)">
<g>
<g transform="rotate(270)">
<g>
<g enable-background="new    ">
<path fill="#787878" d="M-11.647,5.54l-0.891,0L-12.538,5.388l0.342,-0.372c0.049,-0.053,0.093,-0.101,0.131,-0.145s0.071,-0.086,0.099,-0.128c0.026,-0.042,0.047,-0.084,0.062,-0.125c0.015,-0.043,0.021,-0.088,0.021,-0.138c0,-0.038,-0.005,-0.072,-0.017,-0.102s-0.027,-0.054,-0.047,-0.075c-0.021,-0.02,-0.045,-0.035,-0.073,-0.046s-0.06,-0.016,-0.094,-0.016c-0.062,0,-0.118,0.013,-0.167,0.038c-0.051,0.024,-0.098,0.057,-0.143,0.096l-0.1,-0.116c0.025,-0.023,0.055,-0.046,0.084,-0.065c0.029,-0.021,0.063,-0.039,0.097,-0.054s0.071,-0.026,0.109,-0.036c0.038,-0.008,0.079,-0.013,0.121,-0.013c0.063,0,0.119,0.009,0.169,0.026c0.051,0.018,0.094,0.043,0.129,0.076c0.035,0.032,0.063,0.072,0.082,0.119c0.019,0.048,0.028,0.101,0.028,0.16c0,0.056,-0.009,0.108,-0.026,0.158c-0.017,0.05,-0.041,0.1,-0.07,0.148c-0.031,0.048,-0.066,0.097,-0.109,0.146c-0.041,0.049,-0.087,0.1,-0.136,0.152L-12.32,5.37l0,0.008l0.673,0L-11.647,5.54z"/>
</g>
</g>
</g>
</g>
</g>
<g id="connector1pin">
<path fill="#787878" d="M9.9,7.766c-0.193,0,-0.35,-0.157,-0.35,-0.35l0,-7.2c0,-0.193,0.156,-0.35,0.35,-0.35s0.35,0.157,0.35,0.35l0,7.2C10.249,7.609,10.093,7.766,9.9,7.766z"/>
</g>
<g id="connector1terminal">
<polygon fill="none" points="9.9,0.216,9.901,0.216,9.901,0.216"/>
</g>
<g transform="matrix(1, 0, 0, 1, 3.429, 1.3462)">
<g>
<g transform="rotate(270)">
<g>
<g enable-background="new    ">
<path fill="#787878" d="M-2.616,5.54l-0.172,0L-2.788,4.648c0,-0.028,0,-0.058,0,-0.09s0.001,-0.063,0.002,-0.095c0.001,-0.032,0.002,-0.063,0.003,-0.092c0.001,-0.028,0.002,-0.054,0.002,-0.076c-0.011,0.012,-0.021,0.021,-0.029,0.03s-0.017,0.017,-0.026,0.024s-0.018,0.016,-0.028,0.025c-0.01,0.008,-0.021,0.019,-0.035,0.03l-0.145,0.118l-0.094,-0.12l0.374,-0.292l0.146,0L-2.618,5.54z"/>
</g>
</g>
</g>
</g>
</g>
<g>
<path d="M0.18,13.536l1.08,-2.521l1.44,1.438L0.18,13.536z"/>
</g>
<g>
<path d="M0.54,16.776l1.08,-2.521l1.438,1.438L0.54,16.776z"/>
</g>
</g>
</g></g></g><g partID='64200'><g transform='translate(226.296,45.5504)' ><g transform='matrix(0,1,-1,0,0,0)'  ><g xmlns="http://www.w3.org/2000/svg" id="schematic">
<line class="other" y1="3.096" y2="0.216" xmlns="http://www.w3.org/2000/svg" x1="7.55002" x2="8.63003" stroke="#000000" stroke-width="0.432002" stroke-linecap="round"/>
<line class="other" y1="0.216" y2="5.976" xmlns="http://www.w3.org/2000/svg" x1="8.63003" x2="10.43" stroke="#000000" stroke-width="0.432002" stroke-linecap="round"/>
<line class="other" y1="5.976" y2="0.216" xmlns="http://www.w3.org/2000/svg" x1="10.43" x2="12.23" stroke="#000000" stroke-width="0.432002" stroke-linecap="round"/>
<line class="other" y1="0.216" y2="5.976" xmlns="http://www.w3.org/2000/svg" x1="12.23" x2="14.03" stroke="#000000" stroke-width="0.432002" stroke-linecap="round"/>
<line class="other" y1="5.976" y2="0.216" xmlns="http://www.w3.org/2000/svg" x1="14.03" x2="15.8301" stroke="#000000" stroke-width="0.432002" stroke-linecap="round"/>
<line class="other" y1="0.216" y2="5.976" xmlns="http://www.w3.org/2000/svg" x1="15.8301" x2="17.6301" stroke="#000000" stroke-width="0.432002" stroke-linecap="round"/>
<line class="other" y1="5.976" y2="0.216" xmlns="http://www.w3.org/2000/svg" x1="17.6301" x2="19.4301" stroke="#000000" stroke-width="0.432002" stroke-linecap="round"/>
<line class="other" y1="0.216" y2="5.976" xmlns="http://www.w3.org/2000/svg" x1="19.4301" x2="21.2301" stroke="#000000" stroke-width="0.432002" stroke-linecap="round"/>
<line class="other" y1="5.976" y2="3.096" xmlns="http://www.w3.org/2000/svg" x1="21.2301" x2="21.9501" stroke="#000000" stroke-width="0.432002" stroke-linecap="round"/>
<line class="pin" y1="3.096" y2="3.096" xmlns="http://www.w3.org/2000/svg" x1="29.1502" x2="21.9501" stroke="#787878" stroke-width="0.700001" stroke-linecap="round" id="connector1pin" connectorname="2"/>
<g class="terminal" fill="none" xmlns="http://www.w3.org/2000/svg" x="29.1502" y="3.096" stroke="none" stroke-width="0" id="connector1terminal" width="0.000283466" height="0.000283465"/>
<text class="text" fill="#8c8c8c" font-family="'Droid Sans'" xmlns="http://www.w3.org/2000/svg" x="25.5501" stroke="none" stroke-width="0" y="2.046" text-anchor="middle" font-size="2.50001">2</text>
<line class="pin" y1="3.096" y2="3.096" xmlns="http://www.w3.org/2000/svg" x1="0.350001" x2="7.55002" stroke="#787878" stroke-width="0.700001" stroke-linecap="round" id="connector0pin" connectorname="1"/>
<g class="terminal" fill="none" xmlns="http://www.w3.org/2000/svg" x="0.350001" y="3.096" stroke="none" stroke-width="0" id="connector0terminal" width="0.000283466" height="0.000283465"/>
<text class="text" fill="#8c8c8c" font-family="'Droid Sans'" xmlns="http://www.w3.org/2000/svg" x="3.95001" stroke="none" stroke-width="0" y="2.046" text-anchor="middle" font-size="2.50001">1</text>
</g>
</g></g></g><g partID='89070'><line stroke-linecap='round' stroke='#404040' x1='122.4' y1='60.3006' x2='129.683' y2='67.4005' stroke-width='0.699998' /></g><g partID='89180'><line stroke-linecap='round' stroke='#404040' x1='129.683' y1='67.4005' x2='129.683' y2='9.89548' stroke-width='0.699998' /></g><g partID='89120'><line stroke-linecap='round' stroke='#404040' x1='129.683' y1='9.89548' x2='165.601' y2='9.9005' stroke-width='0.699998' /></g><g partID='89360'><line stroke-linecap='round' stroke='#404040' x1='165.705' y1='110.801' x2='165.6' y2='110.701' stroke-width='0.699998' /></g><g partID='89420'><line stroke-linecap='round' stroke='#404040' x1='223.21' y1='117.962' x2='158.327' y2='117.962' stroke-width='0.699998' /></g><g partID='89470'><line stroke-linecap='round' stroke='#404040' x1='158.327' y1='117.962' x2='165.705' y2='110.801' stroke-width='0.699998' /></g><g partID='89370'><line stroke-linecap='round' stroke='#404040' x1='223.2' y1='74.7007' x2='223.21' y2='117.962' stroke-width='0.699998' /></g><g partID='89640'><line stroke-linecap='round' stroke='#404040' x1='223.21' y1='9.89548' x2='223.2' y2='45.9005' stroke-width='0.699998' /></g><g partID='89560'><line stroke-linecap='round' stroke='#404040' x1='187.188' y1='9.89548' x2='223.21' y2='9.89548' stroke-width='0.699998' /></g><g partID='89570'><line stroke-linecap='round' stroke='#404040' x1='187.202' y1='9.9005' x2='187.188' y2='9.89548' stroke-width='0.699998' /></g><g partID='62750' id='partLabel'><g transform='translate(172.617,18.08)' ><g font-size='5' font-style='normal' font-weight='normal' fill='#000000' font-family="'DroidSans'" id='schematicLabel' fill-opacity='1' stroke='none' ><text x='0' y='3.75'>LED1</text><text x='0' y='8.75'>Red (633nm)</text></g></g></g><g partID='64200' id='partLabel'><g transform='translate(228.836,53.7904)' ><g font-size='5' font-style='normal' font-weight='normal' fill='#000000' font-family="'DroidSans'" id='schematicLabel' fill-opacity='1' stroke='none' ><text x='0' y='3.75'>R1</text><text x='0' y='8.75'>10k&#x3a9;</text><text x='0' y='13.75'>&#xb1;5%</text></g></g></g></svg>